<svg xmlns="http://www.w3.org/2000/svg" width="1600" height="900" viewBox="0 0 1600 900">
<defs>
  <linearGradient id="night" x1="0" y1="0" x2="0" y2="1">
    <stop offset="0" stop-color="#07111f"/><stop offset=".58" stop-color="#11243a"/><stop offset="1" stop-color="#09131d"/>
  </linearGradient>
  <radialGradient id="moon"><stop offset="0" stop-color="#fff3c9"/><stop offset=".72" stop-color="#e9c98d"/><stop offset="1" stop-color="#b68a52"/></radialGradient>
  <linearGradient id="paper" x1="0" y1="0" x2="1" y2="1">
    <stop offset="0" stop-color="#f5ead0"/><stop offset="1" stop-color="#d8c59d"/>
  </linearGradient>
  <linearGradient id="gate" x1="0" y1="0" x2="0" y2="1">
    <stop offset="0" stop-color="#b73234"/><stop offset="1" stop-color="#541418"/>
  </linearGradient>
  <linearGradient id="good" x1="0" y1="0" x2="1" y2="1">
    <stop offset="0" stop-color="#b8e6c8"/><stop offset="1" stop-color="#2a8d6b"/>
  </linearGradient>
  <filter id="glow"><feGaussianBlur stdDeviation="9"/></filter>
  <filter id="shadow"><feDropShadow dx="0" dy="8" stdDeviation="10" flood-color="#000" flood-opacity=".45"/></filter>
  <pattern id="waves" width="56" height="28" patternUnits="userSpaceOnUse">
    <path d="M0 18 Q14 3 28 18 T56 18" fill="none" stroke="#d8c59d" stroke-opacity=".18" stroke-width="2"/>
  </pattern>
</defs>

<rect width="1600" height="900" fill="url(#night)"/>
<rect width="1600" height="900" fill="url(#waves)"/>

<!-- moon and mountain -->
<circle cx="1275" cy="118" r="82" fill="#e7c582" opacity=".2" filter="url(#glow)"/>
<circle cx="1275" cy="118" r="68" fill="url(#moon)"/>
<path d="M930 315 L1170 100 L1260 215 L1335 152 L1545 330 Z" fill="#d8e4ea" opacity=".76"/>
<path d="M930 315 L1170 100 L1095 248 L1148 221 L1186 262 L1260 215 L1218 293 L1335 152 L1545 330 Z" fill="#31465b" opacity=".8"/>
<path d="M1130 138 L1170 100 L1198 137 L1178 132 L1160 153 L1147 136 Z" fill="#fff5df" opacity=".92"/>

<!-- distant town -->
<g opacity=".78">
  <rect x="1000" y="277" width="520" height="4" fill="#d59d57"/>
  <g fill="#e1a14f">
    <rect x="1030" y="247" width="25" height="30"/><rect x="1082" y="236" width="34" height="41"/>
    <rect x="1142" y="249" width="27" height="28"/><rect x="1202" y="226" width="38" height="51"/>
    <rect x="1268" y="242" width="30" height="35"/><rect x="1325" y="232" width="34" height="45"/>
    <rect x="1390" y="247" width="27" height="30"/><rect x="1450" y="230" width="39" height="47"/>
  </g>
</g>

<!-- torii/gateway -->
<g transform="translate(1015,165)" filter="url(#shadow)">
  <rect x="88" y="78" width="28" height="180" rx="8" fill="#5c171d"/>
  <rect x="322" y="78" width="28" height="180" rx="8" fill="#5c171d"/>
  <rect x="52" y="64" width="332" height="27" rx="8" fill="url(#gate)"/>
  <rect x="24" y="42" width="388" height="22" rx="8" fill="#c1403c"/>
  <rect x="121" y="94" width="196" height="56" rx="10" fill="#e7cc92" stroke="#7d522e" stroke-width="4"/>
  <text x="219" y="120" text-anchor="middle" font-family="Georgia,serif" font-size="20" font-weight="700" fill="#432419">STAGED REPAIR</text>
  <text x="219" y="143" text-anchor="middle" font-family="monospace" font-size="16" fill="#62422c">verify() stays read-only</text>
</g>

<!-- branches / leaves -->
<g fill="#a9232e" opacity=".9">
  <circle cx="90" cy="58" r="10"/><circle cx="125" cy="80" r="8"/><circle cx="160" cy="48" r="11"/>
  <circle cx="1510" cy="56" r="10"/><circle cx="1478" cy="88" r="8"/><circle cx="1540" cy="104" r="11"/>
  <circle cx="72" cy="205" r="8"/><circle cx="112" cy="186" r="9"/><circle cx="152" cy="216" r="7"/>
</g>
<g stroke="#672029" stroke-width="6" fill="none">
  <path d="M0 75 Q90 30 195 85"/><path d="M1600 64 Q1515 25 1430 92"/>
</g>

<!-- lanterns -->
<g transform="translate(790,92)">
  <rect x="-5" y="-15" width="10" height="20" fill="#4c2724"/>
  <ellipse cx="0" cy="28" rx="30" ry="42" fill="#dc6a3d" stroke="#f0c06c" stroke-width="3"/>
  <path d="M-22 10 H22 M-27 27 H27 M-20 45 H20" stroke="#6a2a28" stroke-width="2"/>
  <circle cx="0" cy="28" r="15" fill="#ffd47c" opacity=".34" filter="url(#glow)"/>
</g>
<g transform="translate(945,120) scale(.72)">
  <rect x="-5" y="-15" width="10" height="20" fill="#4c2724"/>
  <ellipse cx="0" cy="28" rx="30" ry="42" fill="#dc6a3d" stroke="#f0c06c" stroke-width="3"/>
  <path d="M-22 10 H22 M-27 27 H27 M-20 45 H20" stroke="#6a2a28" stroke-width="2"/>
</g>

<!-- title -->
<g filter="url(#shadow)">
  <rect x="42" y="38" width="850" height="246" rx="28" fill="#08111d" fill-opacity=".88" stroke="#bd3435" stroke-width="3"/>
  <rect x="75" y="72" width="13" height="150" fill="#b92e33"/>
  <text x="115" y="113" font-family="Georgia,serif" font-size="58" font-weight="700" fill="#f4e5bf">NODE 26 · LIBATOMIC</text>
  <text x="115" y="178" font-family="Georgia,serif" font-size="54" font-weight="700" fill="#f4e5bf">INSTALL BOUNDARY</text>
  <text x="117" y="226" font-family="Arial,sans-serif" font-size="24" fill="#d8e0e8">Issue #124926 · AlmaLinux / RHEL-family update recovery</text>
  <text x="117" y="260" font-family="Arial,sans-serif" font-size="23" fill="#74ddb1">Repair only while staging. Keep verify() read-only.</text>
</g>

<!-- failure trail -->
<g transform="translate(905,315)">
  <path d="M0 0 C90 55 130 40 210 98 C270 143 338 116 455 164" fill="none" stroke="#e4d1a8" stroke-width="16" stroke-linecap="round" opacity=".8"/>
  <path d="M0 0 C90 55 130 40 210 98 C270 143 338 116 455 164" fill="none" stroke="#ffffff" stroke-width="3" stroke-dasharray="13 16" opacity=".72"/>
  <text x="80" y="63" font-family="monospace" font-size="18" fill="#ffe9c2" transform="rotate(17 80 63)">libatomic.so.1 missing</text>
  <text x="280" y="130" font-family="monospace" font-size="18" fill="#baf1d3" transform="rotate(13 280 130)">repair → retry → publish</text>
</g>

<!-- panel helpers -->
<g filter="url(#shadow)">
  <rect x="28" y="350" width="374" height="496" rx="26" fill="url(#paper)" stroke="#4d3529" stroke-width="3"/>
  <rect x="420" y="350" width="374" height="496" rx="26" fill="url(#paper)" stroke="#4d3529" stroke-width="3"/>
  <rect x="812" y="350" width="374" height="496" rx="26" fill="url(#paper)" stroke="#4d3529" stroke-width="3"/>
  <rect x="1204" y="350" width="368" height="496" rx="26" fill="url(#paper)" stroke="#4d3529" stroke-width="3"/>
</g>

<!-- headers -->
<g font-family="Arial,sans-serif" font-weight="700" fill="#20262a">
  <circle cx="72" cy="395" r="32" fill="#b53034"/><text x="72" y="406" text-anchor="middle" font-size="30" fill="#fff">1</text>
  <text x="116" y="404" font-size="30">BEFORE</text>
  <circle cx="464" cy="395" r="32" fill="#ac5c26"/><text x="464" y="406" text-anchor="middle" font-size="30" fill="#fff">2</text>
  <text x="508" y="404" font-size="30">ROOT CAUSE</text>
  <circle cx="856" cy="395" r="32" fill="#23805f"/><text x="856" y="406" text-anchor="middle" font-size="30" fill="#fff">3</text>
  <text x="900" y="404" font-size="30">FIX</text>
  <circle cx="1248" cy="395" r="32" fill="#23805f"/><text x="1248" y="406" text-anchor="middle" font-size="30" fill="#fff">4</text>
  <text x="1292" y="404" font-size="30">RESULT</text>
</g>

<!-- bullets -->
<g font-family="Arial,sans-serif" font-size="20" fill="#34312c">
  <g transform="translate(54,447)">
    <circle cx="10" cy="8" r="11" fill="#b53034"/><text x="10" y="15" text-anchor="middle" fill="#fff" font-weight="700">×</text>
    <text x="37" y="13">PM stages official Node 26.</text>
    <circle cx="10" cy="65" r="11" fill="#b53034"/><text x="10" y="72" text-anchor="middle" fill="#fff" font-weight="700">×</text>
    <text x="37" y="62">node --version runs as smoke probe.</text>
    <circle cx="10" cy="122" r="11" fill="#b53034"/><text x="10" y="129" text-anchor="middle" fill="#fff" font-weight="700">×</text>
    <text x="37" y="119">Loader cannot find libatomic.so.1.</text>
    <circle cx="10" cy="179" r="11" fill="#b53034"/><text x="10" y="186" text-anchor="middle" fill="#fff" font-weight="700">×</text>
    <text x="37" y="176">Exit 127 rejects the staged tree.</text>
  </g>

  <g transform="translate(446,447)">
    <circle cx="10" cy="8" r="11" fill="#ac5c26"/><text x="10" y="14" text-anchor="middle" fill="#fff" font-weight="700">!</text>
    <text x="37" y="13">Node now comes from PM.</text>
    <circle cx="10" cy="65" r="11" fill="#ac5c26"/><text x="10" y="71" text-anchor="middle" fill="#fff" font-weight="700">!</text>
    <text x="37" y="62">libatomic is a host runtime library.</text>
    <circle cx="10" cy="122" r="11" fill="#ac5c26"/><text x="10" y="128" text-anchor="middle" fill="#fff" font-weight="700">!</text>
    <text x="37" y="116">verify() also powers doctor/read</text><text x="37" y="141">and build/cache checks.</text>
    <circle cx="10" cy="192" r="11" fill="#ac5c26"/><text x="10" y="198" text-anchor="middle" fill="#fff" font-weight="700">!</text>
    <text x="37" y="187">sudo inside verify() would mutate</text><text x="37" y="212">read-only diagnostic paths.</text>
  </g>

  <g transform="translate(838,447)">
    <circle cx="10" cy="8" r="11" fill="#23805f"/><text x="10" y="15" text-anchor="middle" fill="#fff" font-weight="700">✓</text>
    <text x="37" y="13">Staged verify sees exact loader error.</text>
    <circle cx="10" cy="65" r="11" fill="#23805f"/><text x="10" y="72" text-anchor="middle" fill="#fff" font-weight="700">✓</text>
    <text x="37" y="60">repair_staged_verification()</text><text x="37" y="85">owns host remediation.</text>
    <circle cx="10" cy="135" r="11" fill="#23805f"/><text x="10" y="142" text-anchor="middle" fill="#fff" font-weight="700">✓</text>
    <text x="37" y="130">Alma/RHEL → libatomic</text><text x="37" y="155">Debian/Ubuntu → libatomic1</text>
    <circle cx="10" cy="205" r="11" fill="#23805f"/><text x="10" y="212" text-anchor="middle" fill="#fff" font-weight="700">✓</text>
    <text x="37" y="200">Fail-fast sudo in noninteractive</text><text x="37" y="225">workers; retry Node once.</text>
  </g>

  <g transform="translate(1230,447)">
    <circle cx="10" cy="8" r="11" fill="#23805f"/><text x="10" y="15" text-anchor="middle" fill="#fff" font-weight="700">✓</text>
    <text x="37" y="13">Publish only after a green probe.</text>
    <circle cx="10" cy="65" r="11" fill="#23805f"/><text x="10" y="72" text-anchor="middle" fill="#fff" font-weight="700">✓</text>
    <text x="37" y="60">pm doctor remains diagnostic</text><text x="37" y="85">and read-only.</text>
    <circle cx="10" cy="135" r="11" fill="#23805f"/><text x="10" y="142" text-anchor="middle" fill="#fff" font-weight="700">✓</text>
    <text x="37" y="130">Cross-target staging never</text><text x="37" y="155">mutates the host.</text>
    <circle cx="10" cy="205" r="11" fill="#23805f"/><text x="10" y="212" text-anchor="middle" fill="#fff" font-weight="700">✓</text>
    <text x="37" y="200">Failed repair names the exact</text><text x="37" y="225">manual package command.</text>
  </g>
</g>

<!-- terminal cards -->
<g font-family="monospace" font-size="17">
  <rect x="54" y="710" width="322" height="105" rx="14" fill="#0b1520" stroke="#24394d" stroke-width="2"/>
  <text x="72" y="742" fill="#dbe5ed">node --version</text><text x="72" y="770" fill="#f07c79">→ exit 127</text><text x="72" y="798" fill="#f2d0a1">libatomic.so.1 ⇒ not found</text>
  <rect x="446" y="710" width="322" height="105" rx="14" fill="#0b1520" stroke="#24394d" stroke-width="2"/>
  <text x="464" y="742" fill="#76dfb1">verify() = diagnosis</text><text x="464" y="770" fill="#dbe5ed">not privilege escalation</text><text x="464" y="798" fill="#f2d0a1">owner = staged install</text>
  <rect x="838" y="710" width="322" height="105" rx="14" fill="#0b1520" stroke="#24394d" stroke-width="2"/>
  <text x="856" y="742" fill="#76dfb1">sudo -n dnf install -y libatomic</text><text x="856" y="770" fill="#76dfb1">apt-get install -y libatomic1</text><text x="856" y="798" fill="#dbe5ed">retry node --version</text>
  <rect x="1230" y="710" width="316" height="105" rx="14" fill="#0b1520" stroke="#24394d" stroke-width="2"/>
  <text x="1248" y="742" fill="#76dfb1">staged probe: GREEN</text><text x="1248" y="770" fill="#dbe5ed">publish: allowed</text><text x="1248" y="798" fill="#dbe5ed">doctor: no sudo</text>
</g>

<!-- arrows -->
<g fill="#f1dfb7" opacity=".95">
  <path d="M400 585 l22 -18 v12 h22 v12 h-22 v12 z"/>
  <path d="M792 585 l22 -18 v12 h22 v12 h-22 v12 z"/>
  <path d="M1184 585 l22 -18 v12 h22 v12 h-22 v12 z"/>
</g>

<!-- footer -->
<rect x="390" y="858" width="820" height="30" rx="15" fill="#07111b" stroke="#80613f"/>
<text x="800" y="879" text-anchor="middle" font-family="Arial,sans-serif" font-size="16" fill="#dce4e9">PR #124961 · one focused commit · install-boundary repair · regression coverage</text>
</svg>